<svg width="2560" height="952" viewBox="0 0 2560 952" fill="none" xmlns="http://www.w3.org/2000/svg">
<path fill-rule="evenodd" clip-rule="evenodd" d="M-3 465.993C-3 465.993 214.489 683.993 533 683.993C851.511 683.993 949.24 439.442 1306.56 465.799C1663.87 492.155 1851.36 627.49 2160.2 647.799C2760.87 687.299 3184 555.299 3184 555.299L3022.5 802.5L-97 737L-3 465.993Z" fill="#303030" fill-opacity="0.4"/>
<path fill-rule="evenodd" clip-rule="evenodd" d="M3174.23 369.54C3174.23 369.54 2986.07 612.83 2668 629.5C2349.93 646.17 2340.4 503.324 1984.96 548.345C1629.51 593.366 1631.76 671.69 1324.41 708.134C1188.49 724.252 925.969 337.479 412.841 558.637C-100.288 779.796 -948.488 215.413 -948.488 215.413L-226.5 710L3174 737L3174.23 369.54Z" fill="#303030" fill-opacity="0.3"/>
<path fill-rule="evenodd" clip-rule="evenodd" d="M-3 543.299C-3 543.299 61.7266 688.799 342.5 688.799C623.273 688.799 698.018 480.442 1013 506.799C1327.98 533.155 1493.26 668.49 1765.5 688.799C2295 728.299 2668 596.299 2668 596.299L2639.5 737L-32 710L-3 543.299Z" fill="#303030"/>
</svg>
